<?xml version="1.0" encoding="utf-8"?>
<!-- Generator: Adobe Illustrator 27.5.0, SVG Export Plug-In . SVG Version: 6.00 Build 0)  -->
<svg version="1.1" xmlns="http://www.w3.org/2000/svg" xmlns:xlink="http://www.w3.org/1999/xlink" x="0px" y="0px"
	 viewBox="0 0 500 500" style="enable-background:new 0 0 500 500;" xml:space="preserve">
<g id="BACKGROUND">
	<rect style="fill:#FFEFD4;" width="500" height="500"/>
</g>
<g id="OBJECTS">
	<g>
		<g>
			<g>
				<g>
					<ellipse style="fill:#D9C096;" cx="268.448" cy="429.121" rx="83.593" ry="13.357"/>
				</g>
				<g id="XMLID_2_">
					<g id="XMLID_1_">
						<path style="fill:#FFEFD4;" d="M288.488,415.691c0.115-0.324,0.23-0.742,0.418-1.056c0.272,0.115,0.606,0.136,0.92,0.084
							c0.042,0.021,0.073,0.042,0.104,0.063c2.07,0.993,4.139,1.944,6.271,2.801c4.097,1.641,8.32,2.916,12.626,3.857
							c0.481,1.171,2.53,1.411,2.989-0.146c1.787-5.989,8.686-9.867,14.686-7.85c3.031,1.024,5.477,3.449,6.857,6.292
							c0.669,1.38,1.066,2.927,1.108,4.463c0.031,0.815,0.23,1.411-0.596,1.672c-0.983,0.303-1.986,0.564-2.989,0.815
							c-7.536,1.84-15.48,2.101-23.131,0.794c-3.784-0.648-7.505-1.651-11.09-3.021c-1.871-0.721-3.7-1.547-5.487-2.467
							c-1.484-0.763-3.334-1.443-3.345-3.376C287.819,417.614,288.143,416.621,288.488,415.691z"/>
						<path style="fill:#FFEFD4;" d="M243.856,419.83c0.711-0.261,1.557-0.732,2.341-0.962c0.293,0.115,0.617,0.146,0.951,0.052
							c0.01,0,0.021-0.01,0.042-0.01c0.021,0.052,0.042,0.125,0.084,0.219c0.167,0.408,0.272,0.868,0.376,1.296
							c0.355,1.411,0.7,3.324-0.638,4.338c-1.432,1.087-3.522,1.641-5.205,2.237c-3.69,1.296-7.515,2.226-11.393,2.76
							c-7.766,1.045-15.773,0.512-23.319-1.599c-1.892-0.533-3.721-1.192-5.561-1.871c-0.502-0.188-0.554-0.104-0.617-0.627
							c-0.031-0.345,0.021-0.742,0.063-1.087c0.084-0.763,0.282-1.516,0.523-2.247c0.982-2.958,3.23-5.467,5.968-6.919
							c6.648-3.512,14.905,1.202,16.368,8.289c0.314,1.536,2.216,1.369,2.854,0.282c3.742-0.491,7.452-1.202,11.1-2.216
							C239.832,421.199,241.86,420.561,243.856,419.83z"/>
						<path style="fill:#99ABBA;" d="M335.043,111.956c3.512,0.314,7.17,1.432,9.7,4.003c2.279,2.31,3.669,6.031,2.164,9.135
							c-1.338,2.759-4.38,4.369-7.327,3.115c-3.01-1.275-5.101-4.432-6.867-7.045c-1.976-2.927-3.752-5.979-5.686-8.937
							C329.691,111.945,332.357,111.768,335.043,111.956z"/>
						<path style="fill:#5E6372;" d="M315.852,399.866c-1.526,1.484-4.129,0.878-6.083,0.773c-2.331-0.136-4.662-0.345-6.982-0.648
							c-4.056-0.523-8.069-1.348-12.031-2.394c2.927-3.815,5.728-7.724,8.351-11.759c2.425-3.732,4.902-7.536,6.857-11.56
							c0.449-0.93,0.867-1.871,1.265-2.822c1.861-4.547,2.697-9.763,1.035-14.508c-1.526-4.348-4.923-7.453-9.313-8.801
							c-4.296-1.317-8.937-1.024-13.337-0.418c-5.352,0.753-10.735,1.829-15.867,3.533c-9.888,3.293-18.563,9.48-24.49,18.104
							c-3.407,4.954-5.414,10.599-5.488,16.64c-0.084,5.885,1.39,11.644,3.01,17.278c-5.853,0.282-11.717,0.261-17.56-0.073
							c-4.327-7.944-8.634-16.076-10.108-25.107c-0.752-4.557-0.679-9.313,0.575-13.787c0.564-1.965,1.338-3.857,2.279-5.665
							c0.941-1.808,2.028-3.533,3.23-5.184c2.697-3.752,5.926-7.097,9.177-10.379c24.208-4.641,48.551-8.602,72.989-11.832
							c5.885-0.773,11.769-1.505,17.664-2.195c5.498,3.418,10.222,7.62,14.299,12.668c2.247,2.78,4.547,5.686,6.146,8.905
							c1.871,3.752,1.84,7.724,0.648,11.686c-2.195,7.337-6.679,14.121-11.257,20.183c-2.299,3.042-4.756,5.968-7.275,8.832
							c-1.568,1.787-3.136,3.637-4.745,5.414C317.87,397.828,316.877,398.873,315.852,399.866z"/>
						<path style="fill:#15001C;" d="M335.043,108.82c4.954,0.439,9.94,2.174,13.045,6.251c2.55,3.345,3.449,7.923,1.442,11.759
							c-1.881,3.596-5.979,5.749-9.982,4.672c-3.982-1.066-6.71-4.704-8.968-7.912c-2.686-3.836-4.923-7.986-7.63-11.811
							c-0.763-1.087,0.303-2.226,1.359-2.362C327.872,108.977,331.447,108.559,335.043,108.82z M344.743,115.959
							c-2.53-2.571-6.188-3.69-9.7-4.003c-2.686-0.188-5.352-0.011-8.017,0.272c1.934,2.958,3.711,6.01,5.686,8.937
							c1.766,2.613,3.857,5.77,6.867,7.045c2.947,1.254,5.989-0.355,7.327-3.115C348.411,121.99,347.021,118.269,344.743,115.959z"
							/>
						<path style="fill:#99ABBA;" d="M314.107,86.839c3.115-1.986,6.888-3.501,10.641-2.812c3.094,0.564,6.125,2.54,6.909,5.738
							c0.7,2.885-0.638,6.083-3.596,6.982c-3.261,0.983-6.972-0.303-10.066-1.327c-3.334-1.097-6.585-2.425-9.898-3.585
							C309.978,90.027,311.922,88.281,314.107,86.839z"/>
						<path style="fill:#3B4257;" d="M317.65,174.388c1.871,0.303,3.721,0.272,5.519-0.031c-0.094,0.439,0.021,0.909,0.491,1.307
							c1.829,1.547,2.394,3.909,1.422,6.104c-0.606,1.369-1.024,2.435-0.711,3.961c0.251,1.254,0.658,2.425,0.753,3.711
							c0.355,4.913-1.631,9.71-5.362,12.909c-0.397,0.355-0.554,1.035-0.397,1.526c0.627,2.007,0.585,4.129-0.24,6.073
							c-0.836,1.976-2.498,3.083-3.826,4.672c-1.453,1.725-1.557,3.731-2.331,5.749c-0.679,1.777-1.84,3.282-3.261,4.526
							c-2.895-2.226-5.989-4.191-9.376-5.498c7.108-8.174,12.605-17.79,15.396-28.263
							C317.18,185.655,317.807,180.021,317.65,174.388z"/>
						<path style="fill:#15001C;" d="M318.539,161.991c-0.847-0.084-1.568-0.648-1.568-1.568c0-0.784,0.721-1.651,1.568-1.568
							c2.561,0.251,5.32-1.223,6.167-3.732c0.805-2.362-0.084-5.257-2.226-6.679c-0.7-0.47-1.003-1.38-0.554-2.143
							c0.408-0.7,1.432-1.035,2.143-0.564c3.24,2.153,4.933,6.46,3.658,10.222C326.451,159.723,322.521,162.378,318.539,161.991z"/>
						<path style="fill:#5E6372;" d="M311.556,119.952c2.216,1.798,3.376,4.84,2.895,7.651c-0.178,1.045,0.418,1.902,1.505,1.986
							c3.617,0.251,4.39,4.338,3.846,7.285c-2.122-0.105-4.254,0.115-6.324,0.7c-1.975-6.784-5.08-13.222-9.073-19.086
							C306.874,117.893,309.549,118.321,311.556,119.952z"/>
						<path style="fill:#FFAD1F;" d="M310.678,403.869c1.317,1.902,3.063,3.366,4.965,4.662c1.014,0.69,2.038,1.359,3.073,2.007
							c-2.153,0.7-4.15,1.881-5.832,3.439c-3.272-3.021-5.926-6.595-7.871-10.599c0.92,0.104,1.84,0.199,2.759,0.261
							C308.724,403.712,309.696,403.806,310.678,403.869z"/>
						<path style="fill:#15001C;" d="M308.097,91.835c3.313,1.16,6.564,2.488,9.898,3.585c3.094,1.024,6.805,2.31,10.066,1.327
							c2.958-0.899,4.296-4.097,3.596-6.982c-0.784-3.198-3.815-5.174-6.909-5.738c-3.752-0.69-7.526,0.826-10.641,2.812
							C311.922,88.281,309.978,90.027,308.097,91.835z M312.529,84.121c4.254-2.707,9.585-4.359,14.56-2.728
							c3.763,1.223,7.055,4.191,7.724,8.226c0.606,3.69-0.857,7.714-4.306,9.501c-3.846,1.986-8.414,0.868-12.323-0.345
							c-4.536-1.401-8.885-3.355-13.431-4.756c-1.108-0.345-1.547-1.767-0.69-2.624C306.717,88.772,309.403,86.191,312.529,84.121z"
							/>
						<path style="fill:#00AD86;" d="M310.825,416.328c-0.46,0.658-0.867,1.348-1.212,2.08c-4.599-1.014-9.114-2.394-13.463-4.212
							c-1.202-0.502-2.394-1.035-3.564-1.599c-0.314-0.146-0.627-0.314-0.941-0.481c1.348-3.293,2.529-6.658,3.491-10.097
							c0.01-0.052,0.021-0.105,0.021-0.167c1.986,0.408,3.972,0.773,5.979,1.056c0.22,0.031,0.45,0.052,0.679,0.084
							c-0.104,0.397-0.052,0.836,0.136,1.233C304.052,408.803,307.093,412.942,310.825,416.328z"/>
						<path style="fill:#F7C694;" d="M295.104,310.059c-2.686-0.428-3.188-3.428-1.965-5.508c1.411-2.404,4.338-3.721,6.888-4.536
							c5.832-1.861,12.104-1.401,18.124-0.962c2.017,0.136,2.007-3,0-3.136c-5.947-0.429-12.072-0.815-17.894,0.763
							c-2.686,0.721-5.843,2.059-8.069,4.118c-1.631-0.543-2.08-2.519-1.85-4.056c0.345-2.341,2.415-3.815,4.495-4.599
							c2.697-1.035,5.676-1.348,8.519-1.631c3.481-0.355,6.961-0.491,10.452-0.418c2.017,0.042,2.017-3.094,0-3.136
							c-4.338-0.084-8.686,0.146-12.992,0.711c-3.063,0.408-6.324,0.888-9.041,2.477c-0.638-3.177,2.08-6.219,4.819-7.578
							c2.268-1.118,4.85-1.704,7.474-2.038c0.867-0.105,1.745-0.178,2.613-0.23c0.052,0,0.105,0,0.146-0.01
							c1.129-0.063,2.237-0.104,3.303-0.125c4.453-0.084,9.282-0.115,12.48,3.428c1.735,1.934,3.293,4.244,4.275,6.731
							c-0.063,0.439,0.115,0.857,0.397,1.192c0.376,1.171,0.617,2.373,0.679,3.596c0.094,2.017,3.23,2.028,3.136,0
							c-0.073-1.432-0.334-2.822-0.732-4.171c2.352-2.164,4.808-4.275,6.993-6.585c2.362-2.488,1.641-5.467-0.773-7.62
							c-2.582-2.299-5.665-4.181-8.508-6.146c-2.812-1.944-5.665-3.846-8.54-5.707c3.188-3.345,5.979-7.097,8.498-10.881
							c0.784-1.181,1.683-2.404,2.467-3.658c9.177,7.202,18.354,14.414,27.531,21.615c1.16,0.909,2.32,1.819,3.481,2.728
							c1.056,0.836,2.415,1.672,3.063,2.885c1.139,2.143-0.648,4.599-2.017,6.156c-1.892,2.132-4.108,4.014-6.198,5.958
							c-2.195,2.038-4.421,4.066-6.669,6.073c-4.421,3.951-8.916,7.818-13.484,11.602c-1.087,0.899-2.185,1.808-3.282,2.697
							c-1.212,0.982-2.394,2.122-3.805,2.812c-2.07,1.014-4.076,0.335-5.958-0.742c-2.153-1.233-4.055-2.822-6.428-3.658
							c-2.299-0.815-4.819-0.993-7.233-0.826c-2.55,0.167-5.069,0.679-7.557,1.275C299.777,309.453,297.373,310.425,295.104,310.059
							z"/>
						<path style="fill:#15001C;" d="M305.013,403.378c1.944,4.003,4.599,7.578,7.871,10.599c1.683-1.557,3.679-2.738,5.832-3.439
							c-1.035-0.648-2.059-1.317-3.073-2.007c-1.902-1.296-3.648-2.759-4.965-4.662c-0.982-0.063-1.955-0.157-2.906-0.23
							C306.853,403.576,305.933,403.482,305.013,403.378z M295.136,402.019c-0.962,3.439-2.143,6.804-3.491,10.097
							c0.314,0.167,0.627,0.335,0.941,0.481c1.171,0.564,2.362,1.098,3.564,1.599c4.348,1.819,8.864,3.198,13.463,4.212
							c0.345-0.732,0.753-1.422,1.212-2.08c-3.731-3.387-6.773-7.526-8.874-12.104c-0.188-0.397-0.24-0.836-0.136-1.233
							c-0.23-0.031-0.46-0.052-0.679-0.084c-2.007-0.282-3.993-0.648-5.979-1.056C295.157,401.914,295.146,401.967,295.136,402.019z
							 M288.906,414.635c-0.188,0.314-0.303,0.732-0.418,1.056c-0.345,0.93-0.669,1.923-0.659,2.927
							c0.01,1.934,1.861,2.613,3.345,3.376c1.787,0.92,3.617,1.746,5.487,2.467c3.585,1.369,7.306,2.373,11.09,3.021
							c7.651,1.307,15.595,1.045,23.131-0.794c1.003-0.251,2.007-0.512,2.989-0.815c0.826-0.261,0.627-0.857,0.596-1.672
							c-0.042-1.536-0.439-3.083-1.108-4.463c-1.38-2.843-3.826-5.268-6.857-6.292c-6-2.017-12.898,1.861-14.686,7.85
							c-0.46,1.557-2.509,1.317-2.989,0.146c-4.306-0.941-8.529-2.216-12.626-3.857c-2.132-0.857-4.202-1.808-6.271-2.801
							c-0.031-0.021-0.063-0.042-0.104-0.063C289.512,414.771,289.178,414.75,288.906,414.635z M285.321,415.241
							c0.596-1.746,1.369-3.721,3.292-3.93c1.369-3.303,2.54-6.679,3.491-10.128c0.01,0,0.01-0.01,0.01-0.01
							c-1.484-0.355-2.968-0.742-4.442-1.16c-1.223-0.355-1.401-1.714-0.69-2.624c3.637-4.609,7.045-9.407,10.212-14.362
							c2.069-3.23,4.264-6.564,5.979-10.076l2.791,1.328c-1.955,4.024-4.432,7.829-6.857,11.56
							c-2.623,4.035-5.425,7.944-8.351,11.759c3.961,1.045,7.975,1.871,12.031,2.394c2.32,0.303,4.651,0.512,6.982,0.648
							c1.955,0.104,4.557,0.711,6.083-0.773c1.024-0.993,2.017-2.038,2.989-3.115l2.32,1.975c-0.69,0.753-1.38,1.505-2.07,2.268
							c-1.254,1.359-2.477,2.561-4.348,2.833c0.847,0.815,1.808,1.547,2.78,2.195c1.944,1.306,3.951,2.54,5.927,3.805
							c2.237,0.031,4.494,0.596,6.574,1.808c3.387,1.975,5.968,5.331,7.045,9.104c0.512,1.777,0.836,4.003,0.355,5.822
							c-0.585,2.216-3.387,2.561-5.279,3.042c-9.156,2.31-18.835,2.383-28.054,0.345c-4.599-1.014-9.073-2.582-13.306-4.651
							c-1.934-0.941-4.348-1.913-5.435-3.899C284.318,419.495,284.662,417.196,285.321,415.241z"/>
						<path style="fill:#E63E35;" d="M233.759,194.488c10.536-11.017,26.894-13.316,41.308-9.992
							c4.745,1.087,9.365,2.707,13.808,4.693c0.073,0.031,0.157,0.052,0.23,0.073c-0.313,0.418-0.627,0.836-0.962,1.244
							c-1.965,2.352-4.16,4.484-6.533,6.439c-0.219-0.063-0.46-0.084-0.732-0.042c-20.497,3.23-40.628,8.696-59.944,16.295
							c-5.404,2.132-10.745,4.421-16.013,6.867c0,0,0,0.01-0.01,0.01c-0.878-0.136-1.756-0.272-2.624-0.439
							c-2.571-0.47-5.101-1.108-7.588-1.881c1.892-7.223,6.501-13.609,12.919-17.487c3.481-2.101,7.421-3.481,11.466-3.972
							c4.191-0.502,8.268,0.104,12.376,0.93c4.756,0.941,9.512,1.86,14.362,0.982c1.975-0.355,1.139-3.376-0.836-3.021
							C241.233,195.867,237.47,195.23,233.759,194.488z"/>
						<path style="fill:#FFEFD4;" d="M276.405,200.822c-3.669,2.456-7.568,4.578-11.487,6.491c-0.146-0.261-0.303-0.512-0.428-0.784
							c-0.031-0.063-0.052-0.126-0.084-0.199c-0.031-0.073-0.073-0.146-0.084-0.188c-0.084-0.23-0.167-0.46-0.24-0.69
							c-0.146-0.46-0.261-0.93-0.355-1.411c-0.021-0.136-0.052-0.272-0.073-0.408c0,0,0,0,0-0.011c0.01-0.021,0-0.136-0.021-0.24
							c0.303-0.073,0.585-0.146,0.888-0.209C268.461,202.306,272.423,201.522,276.405,200.822z"/>
						<path style="fill:#FFEFD4;" d="M246.355,101.409c5.561-1.819,11.644-1.61,17.246,0.084c-3.491,2.843-7.139,5.488-10.923,7.923
							C250.692,106.646,248.581,103.981,246.355,101.409z"/>
						<path style="fill:#FFEFD4;" d="M251.131,212.988c-0.836-1.934-1.672-3.867-2.508-5.812c3.972-1.118,7.965-2.132,11.978-3.083
							c0.23,1.599,0.732,3.136,1.484,4.568c-3.564,1.641-7.202,3.136-10.891,4.484C251.173,213.093,251.152,213.04,251.131,212.988z
							"/>
						<path style="fill:#F7C694;" d="M187.027,309.516c3.826,1.631,7.662,3.23,11.529,4.766c1.902,0.763,3.815,1.516,5.738,2.247
							c0.951,0.366,1.913,0.732,2.874,1.098c1.003,0.376,2.143,1.056,3.24,0.899c0.627-0.084,1.505-0.251,2.059-0.575
							c0.732-0.429,0.857-1.38,1.118-2.111c0.324-0.92,0.669-1.829,1.066-2.718c1.401-3.146,3.209-6.167,5.425-8.811
							c4.494-5.362,10.557-9.208,17.455-10.588c3.627-0.721,7.672-0.805,11.226,0.324c1.61,0.512,3.313,1.432,4.066,3.021
							c0.575,1.223,0.617,2.697-0.24,3.752c-0.815-0.209-1.62-0.366-2.373-0.491c-8.006-1.265-16.441,1.077-22.222,6.867
							c-1.432,1.421,0.784,3.648,2.216,2.216c4.327-4.338,10.4-6.48,16.483-6.292c2.885,0.094,6.062,0.638,8.592,2.09
							c1.118,0.648,2.352,1.662,2.394,3.073c0.031,0.826-0.397,2.111-1.38,2.195c-0.575,0.042-0.983,0.345-1.233,0.742
							c-1.766-0.617-3.711-0.847-5.54-0.941c-7.066-0.366-14.048,2.111-19.452,6.627c-1.547,1.296,0.679,3.512,2.216,2.226
							c4.327-3.627,9.909-5.676,15.553-5.749c2.613-0.042,8.926,0.69,9.689,3.763c0.188,0.753,0.042,1.651-0.575,2.707
							c-3.104,5.341-10.013,3.815-15.072,3.763c-2.801-0.031-5.54,0.397-8.038,1.704c-2.038,1.056-3.805,2.603-5.456,4.191
							c-1.38,1.338-2.759,2.843-4.254,4.181c-0.324,0.115-0.596,0.335-0.763,0.659c-1.641,1.369-3.449,2.477-5.592,2.916
							c-3.157,0.648-6.439-0.376-9.418-1.39c-2.916-0.993-5.822-2.038-8.717-3.094c-5.885-2.122-11.738-4.359-17.424-6.961
							c-3.366-1.536-6.857-3.167-10.149-5.049c-1.975-1.129-3.888-2.352-5.676-3.7c-2.738-2.07-3.617-4.819-2.864-8.153
							c0.753-3.397,2.383-6.637,3.867-9.762c3.01-6.355,6.512-12.459,10.442-18.281c5.017,3.042,10.034,6.094,15.051,9.135
							c-2.174,3.669-4.338,7.348-6.501,11.027c-0.868,1.474-2.394,3.251-2.519,5.017
							C183.703,308.105,185.449,308.836,187.027,309.516z"/>
						<path style="fill:#00AD86;" d="M242.226,406.44c0.638,3.272,1.463,6.512,2.456,9.689c-0.753,0.293-1.484,0.617-2.122,0.847
							c-5.268,1.882-10.734,3.199-16.274,3.93c-0.293-0.773-0.627-1.516-1.035-2.226c4.014-3.104,7.411-6.951,9.93-11.383
							c0.115-0.209,0.178-0.449,0.188-0.679C237.658,406.608,239.937,406.545,242.226,406.44z"/>
						<path style="fill:#FFEFD4;" d="M250.023,111.067c-6.679,4.076-13.745,7.526-21.072,10.285
							c-0.01-0.042-0.031-0.084-0.052-0.126c-0.648-1.15-1.233-2.341-1.766-3.554c-0.01-0.021-0.021-0.042-0.021-0.052
							c-0.021-0.052-0.042-0.094-0.063-0.146c-0.063-0.146-0.115-0.293-0.178-0.439c-0.115-0.303-0.23-0.596-0.345-0.899
							c-0.136-0.387-0.261-0.794-0.397-1.192c0.418-0.314,0.836-0.638,1.244-0.962c5.038-3.951,10.076-8.55,15.929-11.32
							C245.686,105.35,247.933,108.151,250.023,111.067z"/>
						<path style="fill:#FFAD1F;" d="M227.603,406.482c1.442,0.063,2.895,0.094,4.338,0.115c-2.226,3.69-5.132,6.972-8.54,9.574
							c-1.526-1.683-3.418-3.042-5.508-3.92c1.108-0.575,2.195-1.16,3.282-1.766c1.881-1.066,3.731-2.32,5.122-4.003
							C226.756,406.482,227.206,406.461,227.603,406.482z"/>
						<path style="fill:#8F2621;" d="M266.308,103.322c0.251-0.209,0.397-0.439,0.47-0.679c0.418,0.167,0.836,0.345,1.244,0.544
							c6.909,3.219,12.647,8.435,17.382,14.341c4.818,6.01,8.613,12.919,11.038,20.225c1.202,3.617,2.101,7.348,2.603,11.121
							c1.077,8.561-0.22,17.11-2.864,25.284c-1.401,4.327-2.989,8.665-5.352,12.553c-0.104-0.084-0.219-0.167-0.366-0.23
							c-12.156-5.425-26.016-8.299-38.935-5.32c2.091-6.961-1.526-14.571-8.738-16.828c-3.69-1.16-7.965-0.773-10.996,1.746
							c-1.401,1.171-2.467,2.812-2.623,4.662c-0.146,1.808,0.721,3.355,1.881,4.672c1.024,1.171,2.676,2.279,2.435,4.024
							c-0.261,1.829-1.662,3.731-3.397,4.4c-1.693,0.648-3.606,0.084-4.474-1.547c-0.794-1.495-0.899-3.334-1.296-4.965
							c-0.889-3.69-3.449-6.271-7.317-6.658c-3.732-0.376-7.108,1.777-9.041,4.871c-3.961,6.324-1.63,14.863,4.045,19.253
							c-5.665,1.986-10.724,5.529-14.456,10.296c-2.707,3.46-4.693,7.411-5.832,11.654c-3.867-1.442-7.578-3.282-11.038-5.581
							c-4.139-2.76-7.871-6.136-11.09-9.94c-1.463-1.725-2.822-3.533-4.066-5.425c-8.947-13.598-11.665-30.667-8.519-46.544
							c1.254-6.355,3.502-12.679,7.212-18.041c6.324,0.993,12.7,1.484,19.076,1.516c0.418,0.178,0.909,0.188,1.327,0.021
							c7.191-0.042,14.393-0.679,21.511-1.913c14.048-2.425,27.709-7.181,40.231-14.006c2.132-1.16,4.223-2.394,6.282-3.679
							c0.167-0.021,0.324-0.084,0.491-0.178c0.167-0.094,0.324-0.24,0.45-0.408C258.009,109.75,262.263,106.667,266.308,103.322z"/>
						<path style="fill:#751F1B;" d="M299.045,148.874c-0.502-3.773-1.401-7.505-2.603-11.121
							c-2.425-7.306-6.219-14.215-11.038-20.225c-4.735-5.906-10.473-11.121-17.382-14.341c-0.408-0.199-0.826-0.376-1.244-0.544
							c-0.073,0.24-0.22,0.47-0.47,0.679c-4.045,3.345-8.299,6.428-12.72,9.24c-0.125,0.167-0.282,0.314-0.449,0.408
							c-0.167,0.094-0.324,0.157-0.491,0.178c-2.041,1.274-4.113,2.496-6.225,3.647c-1.743,8.507-5.306,16.748-10.053,24.031
							c-9.034,13.857-21.943,24.722-35.272,34.519c-11.076,8.141-22.904,15.823-35.969,19.805c0.136,0.213,0.26,0.433,0.4,0.645
							c1.244,1.892,2.603,3.7,4.066,5.425c3.219,3.805,6.951,7.181,11.09,9.94c3.46,2.3,7.17,4.139,11.038,5.582
							c1.139-4.244,3.125-8.195,5.832-11.654c3.731-4.766,8.79-8.31,14.456-10.296c-5.676-4.39-8.007-12.93-4.045-19.253
							c1.934-3.094,5.31-5.247,9.041-4.871c3.867,0.387,6.428,2.969,7.317,6.658c0.397,1.631,0.502,3.47,1.296,4.965
							c0.868,1.63,2.78,2.195,4.474,1.547c1.735-0.669,3.136-2.571,3.397-4.4c0.24-1.746-1.411-2.854-2.435-4.024
							c-1.16-1.317-2.028-2.864-1.881-4.672c0.157-1.85,1.223-3.491,2.623-4.662c3.031-2.519,7.306-2.906,10.996-1.745
							c7.212,2.258,10.829,9.867,8.738,16.828c12.919-2.979,26.779-0.104,38.935,5.32c0.146,0.063,0.261,0.146,0.366,0.23
							c2.362-3.888,3.951-8.226,5.352-12.553C298.826,165.984,300.121,157.434,299.045,148.874z"/>
						<path style="fill:#FFEFD4;" d="M229.422,215.518c-0.021-0.052-0.052-0.105-0.063-0.136c-0.219-0.554-0.418-1.108-0.596-1.672
							c-0.01-0.031-0.031-0.073-0.042-0.104c5.571-2.028,11.205-3.867,16.891-5.54c0.889,2.038,1.767,4.076,2.645,6.115
							c-4.955,1.704-10.013,3.157-15.093,4.359c-0.627,0.146-1.265,0.293-1.892,0.429c-0.491-0.753-0.951-1.526-1.348-2.331
							c-0.125-0.272-0.251-0.533-0.376-0.805c-0.031-0.073-0.063-0.167-0.094-0.251
							C229.453,215.559,229.443,215.539,229.422,215.518z"/>
						<path style="fill:#FFEFD4;" d="M228,219.657c-1.798,0.345-3.564,0.638-5.205,0.815c-3.846,0.418-7.777,0.481-11.675,0.24
							c4.829-2.143,9.731-4.15,14.675-6.01C226.359,216.427,227.091,218.089,228,219.657z"/>
						<path style="fill:#FFEFD4;" d="M206.803,120.067c1.108,0.084,2.226,0.136,3.345,0.136c3.564-0.021,7.191-0.491,10.505-1.86
							c1.003-0.408,1.923-0.941,2.812-1.505c0.69,1.923,1.536,3.794,2.519,5.592c-6.042,2.111-12.25,3.784-18.543,4.986
							C206.939,124.99,206.73,122.554,206.803,120.067z"/>
						<path style="fill:#15001C;" d="M228.136,187.202c3.512,0.293,6.522-2.185,7.85-5.299c0.7-1.662,0.951-3.47,0.157-5.142
							c-0.617-1.307-1.693-2.268-2.645-3.313c-1.035-1.118-1.61-2.341-0.752-3.763c0.857-1.432,2.477-2.32,4.076-2.655
							c3.596-0.753,7.567,0.69,9.919,3.481c2.435,2.895,3,7.275,1.474,10.724c-0.136,0.303-0.167,0.596-0.125,0.868
							c-2.488,0.794-4.923,1.808-7.285,3.094c-3.92,2.111-7.473,4.913-10.4,8.278c-0.084,0.105-0.157,0.22-0.22,0.324
							c-3.899-0.7-7.776-1.077-11.748-0.554c-0.784,0.105-1.547,0.251-2.31,0.408c-5.602-2.676-8.884-9.919-5.926-15.699
							c1.411-2.759,4.223-4.85,7.432-4.024c3.481,0.909,3.606,4.338,4.306,7.275C222.701,184.37,224.708,186.92,228.136,187.202z"/>
						<path style="fill:#FFAD1F;" d="M287.15,297.694c0.063,2.32,1.118,4.474,3.073,5.613c-0.606,1.129-0.93,2.404-0.867,3.836
							c0.125,2.561,1.568,4.84,4.045,5.707c2.446,0.857,5.111,0.188,7.536-0.439c5.028-1.296,11.132-2.948,16.065-0.439
							c0.544,0.282,1.066,0.585,1.578,0.909c0.031,0.115,0.073,0.23,0.136,0.345c1.986,3.972,3.522,8.132,4.672,12.417
							c-25.598,2.979-51.112,6.7-76.49,11.205c-5.749,1.024-11.487,2.101-17.225,3.198c-0.219-0.021-0.46,0.021-0.679,0.125
							c-0.826,0.157-1.651,0.314-2.477,0.47c-0.042-1.61-0.094-3.219-0.146-4.829c1.066-0.951,2.101-1.965,3.115-2.979
							c1.767-1.766,3.575-3.543,5.791-4.735c2.864-1.536,6.094-1.422,9.25-1.244c3.188,0.178,6.491,0.46,9.522-0.784
							c2.446-1.003,4.777-2.791,5.926-5.226c0.627-1.348,0.784-2.791,0.512-4.15c-0.282-1.39-1.035-2.697-2.216-3.7
							c2.268-1.317,3.198-4.463,2.028-6.982c-0.909-1.955-2.665-3.261-4.651-4.16c1.536-2.864,0.449-6.679-2.09-8.759
							c-3.397-2.77-8.404-3.219-12.626-2.948c-7.703,0.481-14.916,3.899-20.445,9.167c-1.056-6.115-2.111-12.24-3.157-18.354
							c-0.021-0.094-0.042-0.167-0.073-0.251c0.491-0.962,0.993-1.913,1.463-2.874c0.888-1.798-1.808-3.397-2.707-1.578
							c-3.042,6.177-6.407,12.177-10.055,18.02c-9.992-6.073-19.995-12.135-29.998-18.208c6.219-8.299,12.616-16.452,19.191-24.469
							c1.683-2.038,3.313-4.129,5.101-6.083c0.199-0.219,0.408-0.439,0.617-0.637c1.453-1.453,3.115-2.529,5.257-2.739
							c2.373-0.24,4.808,0.293,7.097,0.889c2.258,0.596,4.484,1.359,6.616,2.32c4.338,1.955,8.383,4.557,12.01,7.641
							c3.7,3.146,6.898,6.857,10.86,9.71c3.731,2.686,8.424,4.463,13.065,3.69c3.387-0.575,6.397-2.53,8.508-5.216
							c4.609-5.885,5.425-13.693,7.777-20.623c7.891-3.596,15.208-8.498,21.605-14.33c1.505-1.369,2.958-2.812,4.369-4.296
							c4.515,1.463,8.487,4.285,12.104,7.306c4.202,3.522,8.195,7.306,12.271,10.975c1.014,0.909,2.017,1.819,3.031,2.728
							c1.014,0.92,2.383,1.829,3.219,2.906c0.334,0.439,0.345,0.679,0.199,0.972c-0.334,0.261-0.564,0.627-0.606,1.014
							c-0.178,0.282-0.345,0.564-0.523,0.847c-0.575,0.92-1.16,1.85-1.756,2.759c-2.509,3.846-5.237,7.557-8.372,10.923
							c-3.188,3.408-6.857,6.533-11.111,8.498c-1.495-6.083-3.272-12.156-6.198-17.623c-0.951-1.777-3.658-0.199-2.707,1.589
							c3.711,6.93,5.477,14.926,7.233,22.577c-0.387,0.042-0.763,0.094-1.15,0.146v0.01c-0.167,0.01-0.345,0.042-0.512,0.063
							c-3.993,0.564-8.195,1.557-11.247,4.369c-2.812,2.582-4.108,6.7-2.728,10.264C287.882,293.743,287.098,295.593,287.15,297.694
							z"/>
						<path style="fill:#F7C694;" d="M145.249,198.867c0.314-0.763,0.199-1.641-0.585-2.101c-0.659-0.387-1.808-0.219-2.143,0.564
							c-1.213,2.833-1.014,6.167,0.753,8.738c1.777,2.582,4.84,4.035,7.965,3.742c1.881-0.178,3.554-0.847,5.028-2.038
							c0.658-0.523,0.554-1.662,0-2.216c-0.658-0.648-1.557-0.533-2.216,0c0.157-0.125-0.293,0.199-0.345,0.23
							c-0.136,0.094-0.272,0.178-0.408,0.251c-0.042,0.021-0.397,0.188-0.408,0.199c-0.125,0.052-0.272,0.105-0.408,0.146
							c-0.826,0.282-1.191,0.324-1.965,0.324s-1.139-0.042-1.976-0.314c-0.418-0.136-0.376-0.125-0.732-0.324
							c-0.167-0.084-0.334-0.178-0.491-0.282c-0.073-0.052-0.136-0.094-0.199-0.136c0,0,0,0-0.021-0.01
							c-0.01-0.01-0.031-0.021-0.042-0.031c-0.617-0.502-0.909-0.836-1.244-1.38c-0.449-0.711-0.564-0.993-0.763-1.777
							c-0.188-0.732-0.23-1.045-0.178-1.913c0.01-0.126,0.021-0.261,0.031-0.387c0.01-0.01,0.073-0.387,0.084-0.428
							c0.042-0.157,0.084-0.303,0.125-0.449c0.021-0.042,0.115-0.314,0.136-0.397V198.867z M318.539,161.991
							c3.982,0.387,7.912-2.268,9.188-6.031c1.275-3.763-0.418-8.069-3.658-10.222c-0.711-0.47-1.735-0.136-2.143,0.564
							c-0.449,0.763-0.146,1.672,0.554,2.143c2.143,1.421,3.031,4.317,2.226,6.679c-0.847,2.509-3.606,3.982-6.167,3.732
							c-0.847-0.084-1.568,0.784-1.568,1.568C316.971,161.343,317.692,161.908,318.539,161.991z M268.273,242.161
							c-1.536,5.32-2.519,10.912-5.446,15.637c-1.735,2.801-4.359,4.965-7.672,5.529c-4.766,0.794-9.376-1.934-12.846-4.913
							c-3.627-3.104-6.825-6.637-10.62-9.554c-3.7-2.843-7.724-5.205-12.052-6.982c-4.171-1.714-9.177-3.324-13.734-2.854
							c-2.927,0.293-5.132,1.683-7.045,3.512c-15.302-5.299-28.859-17.267-35.705-31.963c-0.847-1.829-3.554-0.24-2.707,1.578
							c0.46,0.993,0.951,1.965,1.474,2.927c-5.404,5.352-14.173,5.529-20.006,0.512c-5.791-4.975-7.369-13.787-3.47-20.393
							c2.091-3.533,5.435-6.209,9.344-7.421c0.021,0,0.031-0.011,0.042-0.021c1.369,3.784,3.083,7.453,5.174,10.902
							c1.056,1.725,3.763,0.157,2.718-1.578c-8.916-14.675-10.745-32.841-6.418-49.314c4.191-15.919,14.257-29.726,27.208-39.708
							c7.254-5.592,15.407-10.034,24.02-13.16c1.881-0.679,1.066-3.711-0.836-3.021c-1.693,0.617-3.376,1.286-5.038,2.007
							c1.265-3.711,2.812-7.296,4.704-10.724c1.087-1.955,2.226-3.92,3.554-5.707c1.024-1.38,2.414-2.906,4.244-3.01
							c0.073,0,0.136-0.01,0.209-0.01c2.028,0,3.993,1.62,5.592,2.697c1.756,1.181,3.47,2.414,5.111,3.731
							c2.55,2.049,4.934,4.285,7.16,6.679c-2.299,0.366-4.589,0.805-6.857,1.348c-1.965,0.46-1.139,3.481,0.826,3.021
							c2.969-0.7,5.979-1.244,8.999-1.652c0.167,0.01,0.324-0.01,0.481-0.063c14.215-1.808,28.869-0.251,42.196,5.163
							c15.03,6.094,27.646,17.445,35.12,31.859c4.076,7.86,6.501,16.557,6.805,25.42c0.073,2.017,3.209,2.017,3.136,0
							c-0.136-4.076-0.711-8.101-1.651-12.031c7.306-2.08,15.292,1.108,18.887,7.85c3.606,6.752,2.038,15.605-4.223,20.236
							c-3.293,2.435-7.505,3.303-11.487,2.467c-0.094-1.192-0.22-2.383-0.397-3.575c-0.293-1.996-3.313-1.15-3.021,0.836
							c1.944,13.274-1.474,26.727-8.278,38.172c-6.919,11.644-17.121,21.291-28.88,27.971c-1.861,1.066-3.773,2.038-5.717,2.937
							c-0.575-0.052-1.181,0.157-1.547,0.7c-4.453,1.944-9.083,3.47-13.849,4.495c-1.975,0.429-1.139,3.449,0.836,3.021
							C260.591,244.857,264.49,243.655,268.273,242.161z M187.968,218.622c12.156,5.184,26.246,6.606,39.249,4.348
							c9.679-1.683,19.222-4.589,28.357-8.163c10.62-4.16,21.187-9.386,29.789-16.985c3.773-3.324,7.202-7.243,9.459-11.759
							c3.752-7.494,6.303-15.909,7.338-24.208c0.533-4.317,0.564-8.665,0.021-12.982c-0.021-0.146-0.042-0.303-0.063-0.45
							c-2.205-15.658-10.17-30.834-22.211-41.161c-6.125-5.247-13.4-9.031-21.459-10.024c-4.087-0.502-8.31-0.24-12.271,0.941
							c-3.92,1.16-7.473,3.251-10.766,5.644c-3.188,2.32-6.251,4.829-9.365,7.243c-1.84,1.432-3.585,2.989-5.696,4.003
							c-7.275,3.522-15.856,1.651-23.445,0.554c-4.547-0.648-9.125-1.129-13.692-0.46c-3.7,0.543-7.275,1.881-10.484,3.784
							c-6.689,3.951-11.717,10.191-14.884,17.226c-6.93,15.396-6.951,34.346-0.805,49.983c2.467,6.282,5.968,12.114,10.316,17.205
							C172.937,209.905,179.94,215.204,187.968,218.622z"/>
						<path style="fill:#FFEFD4;" d="M203.678,119.753c-0.105,2.749,0.125,5.498,0.679,8.195c-5.55,0.909-11.142,1.474-16.755,1.641
							c-0.669,0.021-1.348,0.031-2.028,0.042c0.042-3.857,0.146-7.703,0.355-11.539c0.01-0.021,0-0.042,0-0.063
							C191.908,117.663,197.772,119.011,203.678,119.753z"/>
						<path style="fill:#15001C;" d="M307.961,277.113c2.979-0.199,5.979-0.157,8.916,0.24c2.038,0.282,4.066,0.857,5.759,2.07
							c1.672,1.202,2.969,2.801,4.16,4.463c0.888,1.233,1.683,2.529,2.341,3.888c1.704-1.599,3.418-3.188,5.122-4.787
							c0.836-0.794,1.934-1.568,1.223-2.791c-0.627-1.077-1.819-1.819-2.801-2.519c-5.038-3.658-10.191-7.16-15.428-10.536
							c-2.979,2.759-6.292,5.111-10.034,6.784C307.469,274.992,307.72,276.058,307.961,277.113z M312.967,220.368
							c0.773-2.017,0.878-4.024,2.331-5.749c1.328-1.589,2.989-2.697,3.826-4.672c0.826-1.944,0.867-4.066,0.24-6.073
							c-0.157-0.491,0-1.171,0.397-1.526c3.732-3.198,5.717-7.996,5.362-12.909c-0.094-1.286-0.502-2.456-0.753-3.711
							c-0.314-1.526,0.104-2.592,0.711-3.961c0.972-2.195,0.408-4.557-1.422-6.104c-0.47-0.397-0.585-0.868-0.491-1.307
							c-1.798,0.303-3.648,0.335-5.519,0.031c0.157,5.634-0.47,11.268-1.923,16.745c-2.791,10.473-8.289,20.089-15.396,28.263
							c3.387,1.307,6.48,3.272,9.376,5.498C311.128,223.65,312.288,222.145,312.967,220.368z M304.407,118.489
							c3.993,5.864,7.097,12.302,9.073,19.086c2.07-0.585,4.202-0.805,6.324-0.7c0.544-2.948-0.23-7.034-3.846-7.285
							c-1.087-0.084-1.683-0.941-1.505-1.986c0.481-2.812-0.679-5.853-2.895-7.651C309.549,118.321,306.874,117.893,304.407,118.489
							z M262.827,257.797c2.927-4.724,3.909-10.316,5.446-15.637c-3.784,1.495-7.682,2.697-11.665,3.554
							c-1.976,0.429-2.812-2.592-0.836-3.021c4.766-1.024,9.397-2.55,13.849-4.495c0.366-0.543,0.972-0.753,1.547-0.7
							c1.944-0.899,3.857-1.871,5.717-2.937c11.759-6.679,21.96-16.327,28.88-27.971c6.805-11.445,10.222-24.898,8.278-38.172
							c-0.293-1.986,2.728-2.833,3.021-0.836c0.178,1.192,0.303,2.383,0.397,3.575c3.982,0.836,8.195-0.031,11.487-2.467
							c6.261-4.63,7.829-13.484,4.223-20.236c-3.596-6.742-11.581-9.93-18.887-7.85c0.941,3.93,1.516,7.954,1.651,12.031
							c0.073,2.017-3.063,2.017-3.136,0c-0.303-8.864-2.728-17.56-6.805-25.42c-7.473-14.414-20.089-25.765-35.12-31.859
							c-13.327-5.414-27.981-6.972-42.196-5.163c-0.157,0.052-0.314,0.073-0.481,0.063c-3.021,0.408-6.031,0.951-8.999,1.652
							c-1.965,0.46-2.791-2.561-0.826-3.021c2.268-0.543,4.557-0.982,6.857-1.348c-2.226-2.394-4.609-4.63-7.16-6.679
							c-1.641-1.317-3.355-2.55-5.111-3.731c-1.599-1.077-3.564-2.697-5.592-2.697l0.146-3.01c1.589,0.042,3.198,0.606,4.766,1.536
							c6.25,3.742,11.895,8.592,16.692,14.048c6.669-0.794,13.431-0.899,20.121-0.199c17.644,1.84,34.629,9.041,47.171,21.762
							c2.237,2.268,4.317,4.693,6.23,7.233c3.784-1.453,8.184-0.659,11.288,1.934c2.655,2.226,3.951,5.644,3.846,9.031
							c1.787,0.554,3.313,1.756,4.306,3.418c1.275,2.132,1.442,4.683,0.993,7.076c1.84,0.387,3.627,1.024,5.299,1.923
							c7.912,4.212,11.916,14.163,9.167,22.702c-1.808,5.581-6.115,9.878-11.341,11.727c1.986,1.808,2.948,4.557,2.561,7.212
							c-0.209,1.443-1.422,2.864-1.181,4.296c0.251,1.453,0.721,2.822,0.826,4.317c0.387,5.352-1.746,10.829-5.623,14.529
							c1.003,4.4-0.711,8.561-3.951,11.665c-1.003,0.951-1.672,1.798-2.017,3.167c-0.293,1.139-0.585,2.247-1.056,3.334
							c-0.794,1.808-1.975,3.408-3.428,4.735c0.575,0.491,1.15,0.972,1.714,1.463c4.714,4.118,9.303,8.372,13.944,12.564
							c1.913,1.714,5.247,3.669,4.129,6.637c5.811,4.568,11.623,9.135,17.435,13.693c3,2.362,6,4.714,8.999,7.066
							c1.568,1.233,3.136,2.467,4.704,3.7c1.296,1.024,2.707,1.975,3.711,3.313c2.655,3.543,0.794,7.212-1.777,10.243l-2.488-1.819
							c1.369-1.557,3.157-4.014,2.017-6.156c-0.648-1.212-2.007-2.049-3.063-2.885c-1.16-0.909-2.32-1.819-3.481-2.728
							c-9.177-7.202-18.354-14.414-27.531-21.615c-0.784,1.254-1.683,2.477-2.467,3.658c-2.519,3.784-5.31,7.536-8.498,10.881
							c2.874,1.861,5.728,3.763,8.54,5.707c2.843,1.965,5.927,3.846,8.508,6.146c2.414,2.153,3.136,5.132,0.773,7.62
							c-2.185,2.31-4.641,4.421-6.993,6.585c0.397,1.348,0.658,2.738,0.732,4.171c0.094,2.028-3.042,2.017-3.136,0
							c-0.063-1.223-0.303-2.425-0.679-3.596c-0.282-0.335-0.46-0.753-0.397-1.192c-0.982-2.488-2.54-4.798-4.275-6.731
							c-3.198-3.543-8.027-3.512-12.48-3.428c-1.066,0.021-2.174,0.063-3.303,0.125c-0.042,0.01-0.094,0.01-0.146,0.01
							c-0.867,0.052-1.745,0.125-2.613,0.23l-0.397-2.979v-0.01c0.387-0.052,0.763-0.105,1.15-0.146
							c-1.756-7.651-3.522-15.647-7.233-22.577c-0.951-1.787,1.756-3.366,2.707-1.589c2.927,5.467,4.703,11.539,6.198,17.623
							c4.254-1.965,7.923-5.09,11.111-8.498c3.136-3.366,5.864-7.076,8.372-10.923c0.596-0.909,1.181-1.84,1.756-2.759
							c0.178-0.282,0.345-0.565,0.523-0.847c0.042-0.387,0.272-0.753,0.606-1.014c0.146-0.293,0.136-0.533-0.199-0.972
							c-0.836-1.077-2.205-1.986-3.219-2.906c-1.014-0.909-2.017-1.819-3.031-2.728c-4.076-3.669-8.069-7.453-12.271-10.975
							c-3.616-3.021-7.588-5.843-12.104-7.306c-1.411,1.484-2.864,2.927-4.369,4.296c-6.397,5.832-13.714,10.735-21.605,14.33
							c-2.352,6.93-3.167,14.738-7.777,20.623c-2.111,2.686-5.122,4.641-8.508,5.216c-4.641,0.773-9.334-1.003-13.065-3.69
							c-3.962-2.853-7.16-6.564-10.86-9.71c-3.627-3.083-7.672-5.686-12.01-7.641c-2.132-0.962-4.359-1.725-6.616-2.32
							c-2.289-0.596-4.725-1.129-7.097-0.889c-2.143,0.209-3.805,1.286-5.257,2.739l-2.007-2.341
							c1.913-1.829,4.118-3.219,7.045-3.512c4.557-0.47,9.564,1.139,13.734,2.854c4.327,1.777,8.351,4.139,12.052,6.982
							c3.794,2.916,6.993,6.449,10.62,9.554c3.47,2.979,8.08,5.707,12.846,4.913C258.469,262.762,261.092,260.599,262.827,257.797z"
							/>
						<path style="fill:#15001C;" d="M223.401,416.172c3.407-2.603,6.313-5.885,8.54-9.574c-1.442-0.021-2.895-0.052-4.338-0.115
							c-0.397-0.021-0.847,0-1.307,0c-1.39,1.683-3.24,2.937-5.122,4.003c-1.087,0.606-2.174,1.192-3.282,1.766
							C219.983,413.13,221.875,414.489,223.401,416.172z M242.226,406.44c-2.289,0.104-4.568,0.167-6.857,0.178
							c-0.01,0.23-0.073,0.47-0.188,0.679c-2.519,4.432-5.916,8.278-9.93,11.383c0.408,0.711,0.742,1.453,1.035,2.226
							c5.54-0.732,11.006-2.049,16.274-3.93c0.638-0.23,1.369-0.554,2.122-0.847C243.689,412.952,242.863,409.712,242.226,406.44z
							 M207.096,428.16c7.547,2.111,15.553,2.644,23.319,1.599c3.878-0.533,7.703-1.463,11.393-2.76
							c1.683-0.596,3.773-1.15,5.205-2.237c1.338-1.014,0.993-2.927,0.638-4.338c-0.105-0.428-0.209-0.888-0.376-1.296
							c-0.042-0.094-0.063-0.167-0.084-0.219c-0.021,0-0.031,0.01-0.042,0.01c-0.335,0.094-0.659,0.063-0.951-0.052
							c-0.784,0.23-1.63,0.7-2.341,0.962c-1.996,0.732-4.024,1.369-6.062,1.934c-3.648,1.014-7.358,1.725-11.1,2.216
							c-0.638,1.087-2.54,1.254-2.854-0.282c-1.463-7.087-9.721-11.801-16.368-8.289c-2.738,1.453-4.986,3.961-5.968,6.919
							c-0.24,0.732-0.439,1.484-0.523,2.247c-0.042,0.345-0.094,0.742-0.063,1.087c0.063,0.523,0.115,0.439,0.617,0.627
							C203.375,426.969,205.204,427.627,207.096,428.16z M293.944,350.426c-4.359-0.293-8.717,0.439-12.982,1.254
							c-4.996,0.941-9.993,2.184-14.654,4.233c-8.477,3.711-16.065,10.233-20.434,18.459c-5.111,9.637-2.415,20.1,0.47,29.967
							c0.251,0.836-0.251,1.578-0.972,1.861c0.638,3.167,1.453,6.303,2.425,9.397c0.7,0.105,1.338,0.46,1.84,1.192
							c1.129,1.651,1.61,4.484,1.422,6.439c-0.199,2.059-1.296,3.679-3.136,4.63c-2.07,1.077-4.348,1.882-6.564,2.603
							c-4.568,1.484-9.323,2.394-14.111,2.759c-4.724,0.376-9.47,0.157-14.153-0.564c-2.383-0.366-4.735-0.878-7.055-1.536
							c-2.143-0.606-4.494-1.233-6.47-2.279c-2.038-1.077-1.913-3.23-1.599-5.226c0.303-1.923,1.035-3.794,2.07-5.435
							c2.059-3.251,5.341-5.812,9.104-6.731c1.369-0.334,2.759-0.428,4.129-0.324c2.049-1.077,4.129-2.122,6.146-3.251
							c1.286-0.711,2.456-1.463,3.502-2.415c-0.042-0.052-0.094-0.084-0.136-0.146c-1.652-2.686-3.042-5.613-4.442-8.435
							c-1.421-2.895-2.738-5.843-3.846-8.874c-2.101-5.812-3.366-12.073-2.895-18.271c0.334-4.494,1.662-8.592,3.606-12.376
							l2.759,1.296c-0.941,1.808-1.714,3.7-2.279,5.665c-1.254,4.474-1.327,9.229-0.575,13.787
							c1.474,9.031,5.78,17.163,10.108,25.107c5.843,0.335,11.707,0.355,17.56,0.073c-1.62-5.634-3.094-11.393-3.01-17.278
							c0.073-6.041,2.08-11.686,5.488-16.64c5.926-8.623,14.602-14.811,24.49-18.104c5.132-1.704,10.515-2.78,15.867-3.533
							c4.4-0.606,9.041-0.899,13.337,0.418c4.39,1.348,7.787,4.453,9.313,8.801c1.662,4.745,0.826,9.961-1.035,14.508
							c-0.397,0.951-0.815,1.892-1.265,2.822l-2.791-1.328c0.773-1.599,1.453-3.23,1.965-4.913c1.275-4.171,1.38-9.01-1.16-12.741
							C301.742,351.994,297.759,350.688,293.944,350.426z"/>
						<path style="fill:#3B4257;" d="M190.779,252.049c-2.822,0.606-5.822,0.188-8.372-1.16c-1.359-0.711-2.54-1.641-3.533-2.801
							c-1.066-1.233-1.871-2.425-3.481-2.989c-1.38-0.491-2.738-0.721-4.035-1.443c-1.244-0.69-2.32-1.589-3.261-2.644
							c-1.902-2.132-2.979-4.892-2.968-7.745c0-1.108-1.003-1.672-1.986-1.516c-6.334,1.014-12.417-3.272-13.525-9.459
							c0.533,0.073,1.087,0.125,1.641,0.146c4.484,0.167,8.968-1.526,12.281-4.536c7.505,12.292,19.598,22.096,33.009,27.124
							c-0.564,0.658-1.129,1.348-1.693,2.028C193.487,248.704,192.128,250.376,190.779,252.049z"/>
						<path style="fill:#FFEFD4;" d="M182.783,118.405c-0.199,3.742-0.303,7.484-0.345,11.226
							c-5.372-0.063-10.745-0.47-16.076-1.244c0.021-0.01,0.031-0.031,0.042-0.052C170.648,123.422,176.376,119.628,182.783,118.405
							z"/>
						<path style="fill:#15001C;" d="M303.362,331.257c-24.438,3.23-48.781,7.191-72.989,11.832
							c-3.251,3.282-6.481,6.627-9.177,10.379c-1.202,1.651-2.289,3.376-3.23,5.184l-2.759-1.296
							c2.509-4.85,6.052-9.208,9.867-13.285c-0.868,0.01-1.599-0.596-1.631-1.547c-0.042-1.442-0.094-2.885-0.136-4.338
							c-2.049,1.338-4.317,2.268-6.972,2.383c-3.502,0.157-6.919-0.993-10.17-2.143c-3.272-1.15-6.543-2.31-9.804-3.512
							c-6.491-2.394-12.93-4.954-19.138-8.007c-2.247-1.097-4.453-2.258-6.627-3.512l1.474-2.624
							c3.292,1.881,6.783,3.512,10.149,5.049c5.686,2.603,11.539,4.839,17.424,6.961c2.895,1.056,5.801,2.101,8.717,3.094
							c2.979,1.014,6.261,2.038,9.418,1.39c2.143-0.439,3.951-1.547,5.592-2.916c0.167-0.324,0.439-0.543,0.763-0.659
							c1.495-1.338,2.874-2.843,4.254-4.181c1.652-1.589,3.418-3.136,5.456-4.191c2.498-1.307,5.237-1.735,8.038-1.704
							c5.059,0.052,11.968,1.578,15.072-3.763c0.617-1.056,0.763-1.955,0.575-2.707l2.958-0.449c0.272,1.359,0.115,2.801-0.512,4.15
							c-1.15,2.435-3.481,4.223-5.926,5.226c-3.031,1.244-6.334,0.962-9.522,0.784c-3.157-0.178-6.386-0.293-9.25,1.244
							c-2.216,1.192-4.024,2.969-5.791,4.735c-1.014,1.014-2.049,2.028-3.115,2.979c0.052,1.61,0.105,3.219,0.146,4.829
							c0.826-0.157,1.651-0.314,2.477-0.47c0.219-0.104,0.46-0.146,0.679-0.125c5.738-1.098,11.477-2.174,17.225-3.198
							c25.378-4.505,50.893-8.226,76.49-11.205c-1.15-4.286-2.686-8.445-4.672-12.417c-0.063-0.115-0.105-0.23-0.136-0.345
							c-0.512-0.324-1.035-0.627-1.578-0.909c-4.933-2.509-11.038-0.857-16.065,0.439c-2.425,0.627-5.09,1.296-7.536,0.439
							c-2.477-0.867-3.92-3.146-4.045-5.707c-0.063-1.432,0.261-2.707,0.867-3.836c-1.954-1.139-3.01-3.293-3.073-5.613
							c-0.052-2.101,0.732-3.951,2.028-5.446c-1.38-3.564-0.084-7.683,2.728-10.264c3.052-2.812,7.254-3.805,11.247-4.369
							c0.167-0.021,0.345-0.052,0.512-0.063l0.397,2.979c-2.624,0.335-5.205,0.92-7.474,2.038c-2.738,1.359-5.456,4.401-4.819,7.578
							c2.718-1.589,5.979-2.07,9.041-2.477c4.306-0.564,8.654-0.794,12.992-0.711c2.017,0.042,2.017,3.177,0,3.136
							c-3.491-0.073-6.972,0.063-10.452,0.418c-2.843,0.282-5.822,0.596-8.519,1.631c-2.08,0.784-4.15,2.258-4.495,4.599
							c-0.23,1.536,0.22,3.512,1.85,4.056c2.226-2.059,5.383-3.397,8.069-4.118c5.822-1.578,11.947-1.192,17.894-0.763
							c2.007,0.136,2.017,3.272,0,3.136c-6.021-0.439-12.292-0.899-18.124,0.962c-2.55,0.815-5.477,2.132-6.888,4.536
							c-1.223,2.08-0.721,5.08,1.965,5.508c2.268,0.366,4.672-0.606,6.836-1.139c2.488-0.596,5.007-1.108,7.557-1.275
							c2.414-0.167,4.934,0.01,7.233,0.826c2.373,0.836,4.275,2.425,6.428,3.658c1.881,1.077,3.888,1.756,5.958,0.742
							c1.411-0.69,2.592-1.829,3.805-2.812c1.098-0.888,2.195-1.798,3.282-2.697c4.568-3.784,9.062-7.651,13.484-11.602
							c2.247-2.007,4.474-4.035,6.669-6.073c2.09-1.944,4.306-3.826,6.198-5.958l2.488,1.819c-1.15,1.359-2.446,2.592-3.533,3.617
							c-4.86,4.578-9.815,9.062-14.863,13.442c-2.529,2.195-5.069,4.359-7.641,6.491c-2.477,2.059-4.954,4.505-7.724,6.167
							c-2.247,1.338-4.829,1.631-7.296,0.711c-0.24-0.084-0.47-0.188-0.711-0.293c1.495,3.512,2.718,7.149,3.606,10.87
							c0.23,0.941-0.313,1.662-1.129,1.913c5.467,3.92,10.066,8.644,14.173,14.1c2.373,3.167,4.777,6.491,5.749,10.39
							c1.056,4.265,0.167,8.696-1.401,12.721c-3.031,7.756-7.735,14.759-12.898,21.25c-2.603,3.272-5.352,6.418-8.142,9.522
							c-0.679,0.763-1.369,1.526-2.07,2.279l-2.32-1.975c1.61-1.777,3.178-3.627,4.745-5.414c2.519-2.864,4.975-5.791,7.275-8.832
							c4.578-6.062,9.062-12.846,11.257-20.183c1.191-3.962,1.223-7.933-0.648-11.686c-1.599-3.219-3.899-6.125-6.146-8.905
							c-4.076-5.048-8.801-9.25-14.299-12.668C315.131,329.751,309.246,330.483,303.362,331.257z"/>
						<path style="fill:#15001C;" d="M260.601,204.093c-4.014,0.951-8.007,1.965-11.978,3.083c0.836,1.944,1.672,3.878,2.508,5.812
							c0.021,0.052,0.042,0.105,0.063,0.157c3.69-1.348,7.327-2.843,10.891-4.484C261.333,207.229,260.831,205.693,260.601,204.093z
							 M225.795,214.702c-4.944,1.861-9.846,3.867-14.675,6.01c3.899,0.24,7.829,0.178,11.675-0.24
							c1.641-0.178,3.407-0.47,5.205-0.815C227.091,218.089,226.359,216.427,225.795,214.702z M235.986,181.903
							c-1.327,3.115-4.338,5.592-7.85,5.299c-3.428-0.282-5.435-2.833-6.198-6c-0.7-2.937-0.826-6.366-4.306-7.275
							c-3.209-0.826-6.021,1.265-7.432,4.024c-2.958,5.78,0.324,13.024,5.926,15.699c0.763-0.157,1.526-0.303,2.31-0.408
							c3.972-0.523,7.85-0.146,11.748,0.554c0.063-0.104,0.136-0.219,0.22-0.324c2.927-3.366,6.48-6.167,10.4-8.278
							c2.362-1.286,4.798-2.299,7.285-3.094c-0.042-0.272-0.01-0.564,0.125-0.868c1.526-3.449,0.962-7.829-1.474-10.724
							c-2.352-2.791-6.324-4.233-9.919-3.481c-1.599,0.334-3.219,1.223-4.076,2.655c-0.857,1.422-0.282,2.645,0.752,3.763
							c0.951,1.045,2.028,2.007,2.645,3.313C236.937,178.433,236.686,180.241,235.986,181.903z M229.422,215.518
							c0.021,0.021,0.031,0.042,0.031,0.063c0.031,0.084,0.063,0.178,0.094,0.251c0.125,0.272,0.251,0.533,0.376,0.805
							c0.397,0.805,0.857,1.578,1.348,2.331c0.627-0.136,1.265-0.282,1.892-0.429c5.08-1.202,10.139-2.655,15.093-4.359
							c-0.878-2.038-1.756-4.076-2.645-6.115c-5.686,1.672-11.32,3.512-16.891,5.54c0.01,0.031,0.031,0.073,0.042,0.104
							c0.178,0.564,0.376,1.118,0.596,1.672C229.37,215.413,229.401,215.465,229.422,215.518z M275.067,184.495
							c-14.414-3.324-30.772-1.024-41.308,9.992c3.711,0.742,7.474,1.38,11.226,0.7c1.975-0.355,2.812,2.665,0.836,3.021
							c-4.85,0.878-9.606-0.042-14.362-0.982c-4.108-0.826-8.184-1.432-12.376-0.93c-4.045,0.491-7.986,1.871-11.466,3.972
							c-6.418,3.878-11.027,10.264-12.919,17.487c2.488,0.773,5.017,1.411,7.588,1.881c0.868,0.167,1.746,0.303,2.624,0.439
							c0.01,0,0.01-0.01,0.01-0.01c5.268-2.446,10.609-4.735,16.013-6.867c19.316-7.599,39.447-13.065,59.944-16.295
							c0.272-0.042,0.512-0.021,0.732,0.042c2.373-1.955,4.568-4.087,6.533-6.439c0.335-0.408,0.648-0.826,0.962-1.244
							c-0.073-0.021-0.157-0.042-0.23-0.073C284.432,187.202,279.813,185.582,275.067,184.495z M264.918,207.313
							c3.92-1.913,7.818-4.035,11.487-6.491c-3.982,0.7-7.944,1.484-11.884,2.352c-0.303,0.063-0.585,0.136-0.888,0.209
							c0.021,0.104,0.031,0.219,0.021,0.24c0,0.011,0,0.011,0,0.011c0.021,0.136,0.052,0.272,0.073,0.408
							c0.094,0.481,0.209,0.951,0.355,1.411c0.073,0.23,0.157,0.46,0.24,0.69c0.01,0.042,0.052,0.115,0.084,0.188
							c0.031,0.073,0.052,0.136,0.084,0.199C264.615,206.8,264.772,207.051,264.918,207.313z M180.682,211.159
							c3.46,2.299,7.17,4.139,11.038,5.581c1.139-4.244,3.125-8.195,5.832-11.654c3.731-4.766,8.79-8.31,14.456-10.296
							c-5.676-4.39-8.007-12.93-4.045-19.253c1.934-3.094,5.31-5.247,9.041-4.871c3.867,0.387,6.428,2.968,7.317,6.658
							c0.397,1.631,0.502,3.47,1.296,4.965c0.868,1.63,2.78,2.195,4.474,1.547c1.735-0.669,3.136-2.571,3.397-4.4
							c0.24-1.746-1.411-2.854-2.435-4.024c-1.16-1.317-2.028-2.864-1.881-4.672c0.157-1.85,1.223-3.491,2.623-4.662
							c3.031-2.519,7.306-2.906,10.996-1.746c7.212,2.258,10.829,9.867,8.738,16.828c12.919-2.979,26.779-0.104,38.935,5.32
							c0.146,0.063,0.261,0.146,0.366,0.23c2.362-3.888,3.951-8.226,5.352-12.553c2.644-8.174,3.94-16.724,2.864-25.284l3.073-0.45
							c0.021,0.146,0.042,0.303,0.063,0.45c0.544,4.317,0.512,8.665-0.021,12.982c-1.035,8.299-3.585,16.713-7.338,24.208
							c-2.258,4.515-5.686,8.435-9.459,11.759c-8.602,7.599-19.17,12.825-29.789,16.985c-9.135,3.575-18.678,6.48-28.357,8.163
							c-13.003,2.258-27.092,0.836-39.249-4.348c-8.027-3.418-15.031-8.717-20.612-15.26l2.237-2.143
							C172.812,205.023,176.543,208.4,180.682,211.159z"/>
						<path style="fill:#15001C;" d="M246.355,101.409c2.226,2.571,4.338,5.237,6.324,8.007c3.784-2.435,7.432-5.08,10.923-7.923
							C257.999,99.8,251.915,99.591,246.355,101.409z M206.803,120.067c-0.073,2.488,0.136,4.923,0.638,7.348
							c6.292-1.202,12.501-2.874,18.543-4.986c-0.983-1.798-1.829-3.669-2.519-5.592c-0.889,0.564-1.808,1.098-2.812,1.505
							c-3.313,1.369-6.94,1.84-10.505,1.86C209.029,120.203,207.911,120.15,206.803,120.067z M182.438,129.631
							c0.042-3.742,0.146-7.484,0.345-11.226c-6.407,1.223-12.135,5.017-16.379,9.93c-0.01,0.021-0.021,0.042-0.042,0.052
							C171.693,129.16,177.066,129.568,182.438,129.631z M228.899,121.227c0.021,0.042,0.042,0.084,0.052,0.126
							c7.327-2.759,14.393-6.209,21.072-10.285c-2.09-2.916-4.338-5.717-6.721-8.404c-5.853,2.77-10.891,7.369-15.929,11.32
							c-0.408,0.324-0.826,0.648-1.244,0.962c0.136,0.397,0.261,0.805,0.397,1.192c0.115,0.303,0.23,0.596,0.345,0.899
							c0.063,0.146,0.115,0.293,0.178,0.439c0.021,0.052,0.042,0.094,0.063,0.146c0,0.01,0.01,0.031,0.021,0.052
							C227.666,118.886,228.251,120.077,228.899,121.227z M187.602,129.589c5.613-0.167,11.205-0.732,16.755-1.641
							c-0.554-2.697-0.784-5.446-0.679-8.195c-5.906-0.742-11.769-2.09-17.748-1.725c0,0.021,0.01,0.042,0,0.063
							c-0.209,3.836-0.314,7.683-0.355,11.539C186.254,129.62,186.933,129.61,187.602,129.589z M206.134,130.833
							c-7.118,1.233-14.32,1.871-21.511,1.913c-0.418,0.167-0.909,0.157-1.327-0.021c-6.376-0.031-12.752-0.523-19.076-1.516
							c-3.711,5.362-5.958,11.686-7.212,18.041c-3.146,15.877-0.428,32.946,8.519,46.544c1.244,1.892,2.603,3.7,4.066,5.425
							l-2.237,2.143c-4.348-5.09-7.85-10.923-10.316-17.205c-6.146-15.637-6.125-34.587,0.805-49.983
							c3.167-7.034,8.195-13.275,14.884-17.226c3.209-1.902,6.784-3.24,10.484-3.784c4.568-0.669,9.146-0.188,13.692,0.46
							c7.589,1.097,16.17,2.968,23.445-0.554c2.111-1.014,3.857-2.571,5.696-4.003c3.115-2.414,6.177-4.923,9.365-7.243
							c3.292-2.394,6.846-4.484,10.766-5.644c3.962-1.181,8.184-1.442,12.271-0.941c8.059,0.993,15.334,4.777,21.459,10.024
							c12.041,10.327,20.006,25.504,22.211,41.161l-3.073,0.45c-0.502-3.773-1.401-7.505-2.603-11.121
							c-2.425-7.306-6.219-14.215-11.038-20.225c-4.735-5.906-10.473-11.121-17.382-14.341c-0.408-0.199-0.826-0.376-1.244-0.544
							c-0.073,0.24-0.22,0.47-0.47,0.679c-4.045,3.345-8.299,6.428-12.721,9.24c-0.126,0.167-0.282,0.314-0.45,0.408
							c-0.167,0.094-0.324,0.157-0.491,0.178c-2.059,1.286-4.15,2.519-6.282,3.679C233.843,123.652,220.182,128.408,206.134,130.833
							z"/>
						<path style="fill:#5E6372;" d="M146.838,184.798c-6.386,2.028-11.341,7.264-13.045,13.557
							c-1.129-1.996-1.536-4.348-0.941-6.669c0.418-1.651,1.286-3.136,2.498-4.327c1.348-1.338,1.547-2.425,1.004-4.223
							c-1.045-3.408-1.202-7.317,0.617-10.505c1.474-2.55,4.097-4.317,7.034-4.411c0.031,0.711,0.063,1.422,0.115,2.122
							C144.496,175.255,145.395,180.105,146.838,184.798z"/>
						<path style="fill:#15001C;" d="M145.813,204.229c0.335,0.544,0.627,0.878,1.244,1.38c0.01,0.01,0.031,0.021,0.042,0.031
							c0.021,0.01,0.021,0.01,0.021,0.01c0.063,0.042,0.125,0.084,0.199,0.136c0.157,0.104,0.324,0.199,0.491,0.282
							c0.355,0.199,0.314,0.188,0.732,0.324c0.836,0.272,1.202,0.314,1.976,0.314s1.139-0.042,1.965-0.324
							c0.136-0.042,0.282-0.094,0.408-0.146c0.01-0.01,0.366-0.178,0.408-0.199c0.136-0.073,0.272-0.157,0.408-0.251
							c0.052-0.031,0.502-0.355,0.345-0.23c0.658-0.533,1.557-0.648,2.216,0c0.554,0.554,0.658,1.693,0,2.216
							c-1.474,1.192-3.146,1.86-5.028,2.038c-3.125,0.293-6.188-1.16-7.965-3.742c-1.766-2.571-1.965-5.906-0.753-8.738
							c0.334-0.784,1.484-0.951,2.143-0.564c0.784,0.46,0.899,1.338,0.585,2.101v0.01c-0.021,0.084-0.115,0.355-0.136,0.397
							c-0.042,0.146-0.084,0.293-0.125,0.449c-0.01,0.042-0.073,0.418-0.084,0.428c-0.011,0.126-0.021,0.261-0.031,0.387
							c-0.052,0.867-0.01,1.181,0.178,1.913C145.249,203.236,145.364,203.518,145.813,204.229z"/>
						<path style="fill:#15001C;" d="M133.793,198.355c1.704-6.292,6.658-11.529,13.045-13.557
							c-1.442-4.693-2.341-9.543-2.718-14.456c-0.052-0.7-0.084-1.411-0.115-2.122c-2.937,0.094-5.561,1.861-7.034,4.411
							c-1.819,3.188-1.662,7.097-0.617,10.505c0.544,1.798,0.345,2.885-1.004,4.223c-1.212,1.191-2.08,2.676-2.498,4.327
							C132.257,194.007,132.664,196.359,133.793,198.355z M195.567,291.632c-1.986,3.366-3.961,6.731-5.947,10.097
							c-0.523,0.888-1.045,1.777-1.568,2.665c-0.199,0.334-0.7,0.962-0.784,1.338c-0.136,0.575-0.334,0.136,0.167,0.564
							c0.585,0.512,1.881,0.805,2.592,1.108c0.899,0.387,1.798,0.763,2.707,1.139c3.627,1.516,7.285,2.979,10.954,4.411
							c1.829,0.711,3.669,1.411,5.519,2.101c0.157,0.063,0.658,0.293,0.658,0.397c0.105-0.031,0.209-0.073,0.303-0.094
							c0.104-0.031,0.209-0.052,0.314-0.084c1.578-4.536,3.846-8.78,6.857-12.543c0.146-0.188,0.314-0.366,0.47-0.554
							c0-0.021-0.01-0.031-0.01-0.042c-0.972-5.644-1.944-11.299-2.916-16.943c-2.216,4.087-4.557,8.1-7.055,12.02
							c-0.449,0.711-1.401,1.014-2.143,0.564C202.308,295.729,198.943,293.68,195.567,291.632z M190.779,252.049
							c1.348-1.672,2.707-3.345,4.076-4.996c0.564-0.679,1.129-1.369,1.693-2.028c-13.41-5.028-25.504-14.832-33.009-27.124
							c-3.313,3.01-7.797,4.704-12.281,4.536c-0.554-0.021-1.108-0.073-1.641-0.146c1.108,6.188,7.191,10.473,13.525,9.459
							c0.983-0.157,1.986,0.408,1.986,1.516c-0.01,2.854,1.066,5.613,2.968,7.745c0.941,1.056,2.017,1.955,3.261,2.644
							c1.296,0.721,2.655,0.951,4.035,1.443c1.61,0.564,2.415,1.756,3.481,2.989c0.993,1.16,2.174,2.09,3.533,2.801
							C184.957,252.237,187.957,252.655,190.779,252.049z M198.556,314.282c-3.867-1.536-7.703-3.136-11.529-4.766
							c-1.578-0.679-3.324-1.411-3.157-3.46c0.125-1.767,1.651-3.543,2.519-5.017c2.164-3.679,4.327-7.358,6.501-11.027
							c-5.017-3.042-10.034-6.094-15.051-9.135c-3.93,5.822-7.432,11.926-10.442,18.281c-1.484,3.125-3.115,6.365-3.867,9.762
							c-0.753,3.334,0.125,6.083,2.864,8.153c1.787,1.348,3.7,2.571,5.676,3.7l-1.474,2.624c-0.836-0.47-1.662-0.962-2.477-1.463
							c-2.561-1.557-5.425-3.23-6.888-5.958c-3.199-5.916,1.014-13.264,3.564-18.626c2.989-6.282,6.47-12.334,10.369-18.104
							c-0.763-0.46-1.516-0.92-2.279-1.38c-0.659-0.397-1.077-1.453-0.564-2.143c5.122-6.857,10.358-13.619,15.72-20.298
							c-2.247-0.021-4.463-0.523-6.533-1.495c-1.495-0.69-2.895-1.652-4.076-2.801c-0.669-0.648-1.192-1.401-1.798-2.101
							c-0.659-0.763-1.233-0.972-2.205-1.223c-5.989-1.516-10.599-6.773-11.33-12.846c-7.902,0.313-14.926-5.299-15.71-13.39
							c-7.223-2.331-12.47-9.02-13.17-16.797c-0.063-0.7-0.073-1.401-0.052-2.09c-2.791-2.78-4.181-6.731-3.575-10.641
							c0.282-1.861,1.014-3.669,2.101-5.205c0.314-0.439,0.648-0.867,1.014-1.265c0.146-0.157,0.826-0.648,0.878-0.815
							c0.063-0.261-0.303-0.909-0.387-1.202c-0.157-0.564-0.293-1.129-0.397-1.704c-0.753-3.993-0.335-8.383,2.09-11.759
							c2.101-2.927,5.425-4.934,9.052-5.007c0.01-15.783,5.425-31.284,15.031-43.848c8.435-11.027,19.567-19.734,32.047-25.713
							c-0.052-0.23-0.052-0.481,0.042-0.763c1.348-4.348,3.104-8.571,5.258-12.574c1.683-3.115,3.564-6.763,6.345-9.041
							c1.536-1.265,3.178-1.777,4.85-1.725l-0.146,3.01c-0.073,0-0.136,0.01-0.209,0.01c-1.829,0.104-3.219,1.631-4.244,3.01
							c-1.327,1.787-2.467,3.752-3.554,5.707c-1.892,3.428-3.439,7.014-4.704,10.724c1.662-0.721,3.345-1.39,5.038-2.007
							c1.902-0.69,2.718,2.341,0.836,3.021c-8.613,3.125-16.766,7.568-24.02,13.16c-12.951,9.982-23.016,23.79-27.208,39.708
							c-4.327,16.473-2.498,34.639,6.418,49.314c1.045,1.735-1.662,3.303-2.718,1.578c-2.09-3.449-3.805-7.118-5.174-10.902
							c-0.01,0.01-0.021,0.021-0.042,0.021c-3.909,1.212-7.254,3.888-9.344,7.421c-3.899,6.606-2.32,15.417,3.47,20.393
							c5.832,5.017,14.602,4.839,20.006-0.512c-0.523-0.962-1.014-1.934-1.474-2.927c-0.847-1.819,1.861-3.407,2.707-1.578
							c6.846,14.696,20.403,26.664,35.705,31.963l2.007,2.341c-0.209,0.199-0.418,0.418-0.617,0.637
							c-1.787,1.955-3.418,4.045-5.101,6.083c-6.575,8.017-12.971,16.17-19.191,24.469c10.003,6.073,20.006,12.135,29.998,18.208
							c3.648-5.843,7.014-11.843,10.055-18.02c0.899-1.819,3.596-0.219,2.707,1.578c-0.47,0.962-0.972,1.913-1.463,2.874
							c0.031,0.084,0.052,0.157,0.073,0.251c1.045,6.115,2.101,12.24,3.157,18.354c5.529-5.268,12.741-8.686,20.445-9.167
							c4.223-0.272,9.229,0.178,12.626,2.948c2.54,2.08,3.627,5.895,2.09,8.759c1.986,0.899,3.742,2.206,4.651,4.16
							c1.171,2.519,0.24,5.665-2.028,6.982c1.181,1.003,1.934,2.31,2.216,3.7l-2.958,0.449c-0.763-3.073-7.076-3.805-9.689-3.763
							c-5.644,0.073-11.226,2.122-15.553,5.749c-1.537,1.286-3.763-0.93-2.216-2.226c5.404-4.515,12.386-6.993,19.452-6.627
							c1.829,0.094,3.773,0.324,5.54,0.941c0.251-0.397,0.659-0.7,1.233-0.742c0.982-0.084,1.411-1.369,1.38-2.195
							c-0.042-1.411-1.275-2.425-2.394-3.073c-2.529-1.453-5.707-1.996-8.592-2.09c-6.083-0.188-12.156,1.955-16.483,6.292
							c-1.432,1.432-3.648-0.794-2.216-2.216c5.78-5.791,14.215-8.132,22.222-6.867c0.753,0.125,1.557,0.282,2.373,0.491
							c0.857-1.056,0.815-2.529,0.24-3.752c-0.753-1.589-2.456-2.508-4.066-3.021c-3.554-1.129-7.599-1.045-11.226-0.324
							c-6.898,1.38-12.961,5.226-17.455,10.588c-2.216,2.645-4.024,5.665-5.425,8.811c-0.397,0.888-0.742,1.798-1.066,2.718
							c-0.261,0.732-0.387,1.683-1.118,2.111c-0.554,0.324-1.432,0.491-2.059,0.575c-1.098,0.157-2.237-0.523-3.24-0.899
							c-0.962-0.366-1.923-0.732-2.874-1.098C202.371,315.798,200.458,315.045,198.556,314.282z"/>
						<path style="fill:#99ABBA;" d="M112.157,170.113c-2.686,1.756-5.864,1.233-7.808-1.348c-2.049-2.728-1.474-6.324,0.334-9.01
							c2.289-3.397,6.491-4.996,10.421-5.477c2.686-0.293,5.383-0.199,8.059,0c-1.599,2.644-3.073,5.362-4.672,8.007
							C116.808,165.054,114.937,168.294,112.157,170.113z"/>
						<path style="fill:#99ABBA;" d="M115.805,137.073c-3.271-0.24-5.341-2.843-5.237-6.052c0.115-3.157,2.613-5.613,5.477-6.606
							c4.108-1.432,8.435-0.094,12.041,2.028c2.247,1.38,4.265,3.062,6.219,4.819c-2.77,1.077-5.488,2.279-8.257,3.355
							C122.87,135.86,119.285,137.334,115.805,137.073z"/>
						<path style="fill:#15001C;" d="M110.568,131.021c-0.104,3.209,1.965,5.811,5.237,6.052c3.481,0.261,7.066-1.212,10.243-2.456
							c2.77-1.077,5.487-2.279,8.257-3.355c-1.955-1.756-3.972-3.439-6.219-4.819c-3.606-2.122-7.933-3.46-12.041-2.028
							C113.181,125.408,110.683,127.864,110.568,131.021z M122.808,139.09c-3.93,1.233-8.644,2.017-12.146-0.732
							c-2.927-2.289-3.909-6.522-2.78-9.982c1.254-3.888,4.902-6.595,8.822-7.4c4.516-0.93,9.073,0.47,12.961,2.759
							c3.188,1.955,5.958,4.463,8.696,6.993c0.92,0.847,0.366,2.258-0.69,2.624C132.654,135.087,127.888,137.501,122.808,139.09z"/>
						<path style="fill:#15001C;" d="M100.523,168.221c-1.547-3.951-0.084-8.466,2.603-11.55c3.021-3.46,7.557-4.986,11.978-5.529
							c3.585-0.387,7.17-0.094,10.756,0.23c1.097,0.105,2.059,1.286,1.348,2.362c-2.906,4.432-5.205,9.24-8.247,13.588
							c-2.3,3.282-5.247,6.616-9.501,6.993C105.488,174.67,101.914,171.796,100.523,168.221z M104.683,159.754
							c-1.808,2.686-2.383,6.282-0.334,9.01c1.944,2.582,5.122,3.104,7.808,1.348c2.78-1.819,4.651-5.059,6.334-7.829
							c1.599-2.645,3.073-5.362,4.672-8.007c-2.676-0.199-5.372-0.293-8.059,0C111.174,154.758,106.972,156.357,104.683,159.754z"/>
					</g>
				</g>
				<path style="fill:#C48F58;" d="M325.758,159.178c-1.841,1.935-4.517,3.076-7.219,2.813c-0.847-0.084-1.568-0.648-1.568-1.568
					c0-0.784,0.721-1.652,1.568-1.568c0.955,0.094,1.938-0.054,2.839-0.404c-1.544-0.371-3.039-1.344-3.927-2.662
					c-0.791-1.175-1.25-2.495-1.558-3.874c0.011,0.241,0.035,0.48,0.043,0.721c0.073,2.017-3.063,2.017-3.136,0
					c-0.303-8.864-2.728-17.56-6.804-25.42c-0.461-0.888-0.941-1.764-1.44-2.628c-0.499-0.864-1.017-1.716-1.553-2.555
					c0.671,7.203-0.018,14.464-1.78,21.492c0.356,1.625,0.664,3.258,0.895,4.898c0.021,0.146,0.042,0.303,0.063,0.45
					c0.544,4.317,0.512,8.665-0.021,12.982c-1.035,8.299-3.585,16.713-7.338,24.208c-2.258,4.516-5.686,8.435-9.459,11.759
					c-8.602,7.599-19.17,12.825-29.789,16.985c-9.135,3.575-18.678,6.48-28.357,8.163c-8.964,1.557-18.444,1.363-27.452-0.605
					c-9.332,1.478-18.806,1.933-28.254,1.207c0.529,0.628,1.074,1.242,1.628,1.85c0.235,0.258,0.475,0.513,0.715,0.767
					c0.413,0.438,0.832,0.87,1.257,1.296c0.216,0.216,0.428,0.436,0.647,0.649c0.595,0.58,1.203,1.147,1.821,1.704
					c0.239,0.215,0.482,0.425,0.724,0.637c0.47,0.412,0.947,0.816,1.429,1.214c0.229,0.188,0.455,0.38,0.686,0.565
					c0.664,0.533,1.339,1.053,2.023,1.559c0.217,0.161,0.438,0.315,0.657,0.473c0.544,0.392,1.094,0.775,1.649,1.15
					c0.229,0.154,0.456,0.31,0.687,0.461c0.732,0.479,1.471,0.945,2.22,1.393c0.17,0.102,0.343,0.198,0.515,0.298
					c0.632,0.37,1.271,0.728,1.914,1.074c0.223,0.12,0.446,0.241,0.671,0.358c0.791,0.414,1.589,0.815,2.395,1.192
					c0.102,0.048,0.205,0.091,0.307,0.138c0.73,0.337,1.466,0.657,2.207,0.963c0.221,0.092,0.443,0.182,0.665,0.271
					c0.839,0.335,1.681,0.657,2.532,0.952c1.913-1.829,4.118-3.219,7.045-3.512c4.557-0.47,9.564,1.139,13.734,2.854
					c4.327,1.777,8.351,4.139,12.052,6.982c3.794,2.916,6.993,6.449,10.62,9.554c3.47,2.979,8.08,5.707,12.846,4.912
					c3.313-0.564,5.937-2.728,7.672-5.529c2.927-4.724,3.909-10.316,5.446-15.637c-3.784,1.495-7.682,2.697-11.665,3.554
					c-1.976,0.429-2.812-2.592-0.836-3.021c4.766-1.024,9.397-2.55,13.849-4.495c0.366-0.544,0.972-0.753,1.547-0.7
					c1.944-0.899,3.857-1.871,5.717-2.937c11.759-6.679,21.96-16.327,28.88-27.971c6.805-11.445,10.222-24.898,8.278-38.172
					c-0.293-1.986,2.728-2.833,3.021-0.836c0.178,1.192,0.303,2.383,0.397,3.575c3.982,0.836,8.195-0.031,11.487-2.467
					c0.496-0.367,0.955-0.767,1.389-1.186c0.066-0.063,0.128-0.128,0.192-0.192c0.413-0.414,0.806-0.843,1.165-1.296
					C328.683,165.063,326.148,162.294,325.758,159.178z"/>
				<path style="fill:#F7C694;" d="M183.097,234.287c-0.219-0.158-0.44-0.312-0.657-0.473
					C182.657,233.974,182.878,234.129,183.097,234.287z"/>
				<path style="fill:#F7C694;" d="M184.747,235.436c-0.556-0.374-1.105-0.758-1.649-1.15
					C183.641,234.679,184.191,235.062,184.747,235.436z"/>
				<path style="fill:#F7C694;" d="M185.433,235.897c-0.23-0.151-0.458-0.307-0.687-0.461
					C184.975,235.59,185.203,235.746,185.433,235.897z"/>
				<path style="fill:#F7C694;" d="M187.654,237.29c-0.749-0.448-1.489-0.914-2.22-1.393
					C186.165,236.376,186.904,236.842,187.654,237.29z"/>
				<path style="fill:#F7C694;" d="M182.44,233.814c-0.684-0.506-1.359-1.026-2.023-1.559
					C181.081,232.788,181.755,233.308,182.44,233.814z"/>
				<path style="fill:#FF961F;" d="M251.933,279.014c14.861,0.754,28.493-8.447,38.7-19.275
					c8.273-8.776,15.147-19.327,19.345-30.635c-3.575-2.972-7.496-5.736-11.947-7.178c-1.411,1.484-2.864,2.927-4.369,4.296
					c-6.397,5.832-13.714,10.734-21.605,14.33c-2.352,6.93-3.167,14.738-7.776,20.622c-2.111,2.686-5.122,4.641-8.508,5.216
					c-4.641,0.773-9.334-1.003-13.065-3.69c-3.962-2.853-7.16-6.564-10.86-9.71c-3.627-3.083-7.672-5.686-12.01-7.641
					c-2.132-0.962-4.359-1.725-6.616-2.32c-2.289-0.596-4.725-1.129-7.097-0.889c-2.143,0.209-3.805,1.286-5.257,2.738
					c-0.209,0.199-0.418,0.418-0.617,0.638c-0.105,0.115-0.2,0.238-0.304,0.354c1.808,0.681,3.527,1.67,5.047,2.838
					c3.755,2.885,6.618,6.743,9.809,10.242c5.198,5.701,11.358,10.522,18.141,14.197C238.816,276.33,245.26,278.675,251.933,279.014
					z"/>
				<path style="fill:#3B4257;" d="M308.174,368.726c-0.274,0.928-0.582,1.844-0.945,2.73c-0.397,0.951-0.815,1.892-1.265,2.822
					c-1.955,4.024-4.432,7.829-6.857,11.56c-2.623,4.034-5.425,7.944-8.351,11.759c3.961,1.045,7.975,1.871,12.031,2.394
					c2.32,0.303,4.651,0.512,6.982,0.648c1.955,0.104,4.557,0.711,6.083-0.773c1.024-0.993,2.017-2.038,2.989-3.115
					c1.61-1.777,3.178-3.627,4.745-5.414c2.519-2.864,4.975-5.791,7.275-8.832c4.578-6.062,9.062-12.846,11.257-20.183
					c0.483-1.604,0.762-3.209,0.815-4.801c-8.487,5.287-17.929,9.046-27.75,10.929C312.992,368.87,310.514,368.998,308.174,368.726z
					"/>
				<path style="fill:#3B4257;" d="M216.681,384.639c2.034,6.499,5.28,12.589,8.539,18.571c5.843,0.334,11.707,0.355,17.56,0.073
					c-1.62-5.634-3.094-11.393-3.01-17.278c0.067-5.506,1.754-10.676,4.629-15.301c-4.748,3.926-9.107,8.415-14.512,11.361
					C225.896,384.241,221.06,385.408,216.681,384.639z"/>
				<path style="fill:#E63E35;" d="M218.374,88.887c2.268-0.544,4.557-0.983,6.857-1.348c-2.226-2.394-4.609-4.63-7.16-6.679
					c-1.641-1.317-3.355-2.55-5.111-3.731c-1.599-1.077-3.564-2.697-5.592-2.697c-0.073,0-0.136,0.01-0.209,0.01
					c-1.829,0.104-3.219,1.631-4.244,3.01c-1.327,1.787-2.467,3.752-3.554,5.707c-1.892,3.428-3.439,7.014-4.704,10.724
					c1.662-0.721,3.345-1.39,5.038-2.007c1.024-0.371,1.728,0.337,1.871,1.175c5.19-1.498,10.48-2.641,15.826-3.418
					C217.558,89.286,217.875,89.004,218.374,88.887z"/>
			</g>
		</g>
		<g>
			<path style="fill:#15001C;" d="M86.826,236.126c-0.709-1.77-3.612-0.997-2.893,0.798c1.933,4.826,3.69,9.718,5.289,14.66
				c-3.041,1.362-6.082,2.723-9.123,4.085c-2.377-4.957-4.942-9.824-7.709-14.58c-0.97-1.668-3.564-0.16-2.59,1.514
				c5.75,9.886,10.674,20.23,14.692,30.938c0.672,1.791,3.573,1.015,2.893-0.798c-1.826-4.867-3.839-9.659-6.018-14.374
				c2.922-1.308,5.844-2.617,8.766-3.925c1.717,5.559,3.227,11.182,4.515,16.86c0.427,1.882,3.32,1.086,2.893-0.797
				C94.88,258.783,91.297,247.286,86.826,236.126z"/>
			<path style="fill:#15001C;" d="M98.234,233.363c-0.872-0.879-2.647-0.266-2.561,1.061c0.752,11.573,2.647,23.054,5.677,34.248
				c0.504,1.862,3.399,1.072,2.893-0.797c-0.468-1.727-0.898-3.463-1.311-5.203c3.351-1.196,6.738-2.288,10.162-3.255
				c0.085-0.024,0.159-0.058,0.233-0.092c1.268,2.229,2.503,4.477,3.718,6.728c0.918,1.699,3.509,0.186,2.59-1.514
				C113.638,253.43,107.191,242.383,98.234,233.363z M102.254,259.738c-1.529-6.983-2.62-14.053-3.259-21.177
				c4.926,5.542,9.044,11.717,12.802,18.113C108.584,257.594,105.402,258.617,102.254,259.738z"/>
			<path style="fill:#15001C;" d="M116.127,229.027c-0.603-1.825-3.501-1.043-2.893,0.798c2.76,8.357,5.195,16.817,7.298,25.364
				c0.461,1.874,3.355,1.08,2.893-0.798C121.321,245.845,118.887,237.385,116.127,229.027z"/>
			<path style="fill:#15001C;" d="M120.517,226.63c3.096,9.562,5.365,19.392,6.703,29.355c0.109,0.809,0.612,1.491,1.5,1.5
				c0.727,0.008,1.608-0.697,1.5-1.5c-1.375-10.239-3.627-20.322-6.81-30.152C122.818,224.003,119.92,224.786,120.517,226.63z"/>
			<circle style="fill:#15001C;" cx="123.475" cy="262.904" r="1.559"/>
			<circle style="fill:#15001C;" cx="129.451" cy="262.904" r="1.559"/>
			<g>
				<path style="fill:#15001C;" d="M358.466,181.122c1.02-5.22,1.835-10.476,2.464-15.754c0.008,0.001,0.016,0.004,0.025,0.005
					c3.261,0.429,6.522,0.859,9.783,1.288c-1.488,5.781-3.195,11.507-5.124,17.161c-0.625,1.831,2.272,2.617,2.893,0.798
					c3.969-11.634,7.012-23.564,9.102-35.677c0.326-1.888-2.565-2.699-2.893-0.798c-0.904,5.242-1.998,10.447-3.257,15.611
					c-3.398-0.447-6.796-0.895-10.194-1.342c0.59-5.613,0.966-11.249,1.108-16.895c0.048-1.931-2.952-1.93-3,0
					c-0.293,11.69-1.558,23.329-3.8,34.806C355.204,182.211,358.095,183.018,358.466,181.122z"/>
				<path style="fill:#15001C;" d="M386.263,152.28c-5.546,10.471-10.042,21.481-13.4,32.844c-0.548,1.855,2.346,2.648,2.893,0.798
					c0.52-1.758,1.077-3.503,1.651-5.242c3.577,0.757,7.128,1.627,10.646,2.626c0.086,0.024,0.173,0.037,0.259,0.044
					c-0.092,2.642-0.223,5.282-0.372,7.914c-0.109,1.929,2.891,1.923,3,0c0.732-12.898,1.028-25.96-1.934-38.625
					C388.715,151.402,386.86,151.152,386.263,152.28z M378.367,177.824c2.426-6.944,5.288-13.726,8.576-20.311
					c1.338,7.511,1.614,15.147,1.453,22.779C385.08,179.362,381.735,178.541,378.367,177.824z"/>
				<path style="fill:#15001C;" d="M404.032,157.672c-2.077,8.756-4.492,17.427-7.242,25.995c-0.591,1.842,2.304,2.632,2.893,0.797
					c2.75-8.568,5.165-17.239,7.242-25.995C407.37,156.593,404.478,155.792,404.032,157.672z"/>
				<path style="fill:#15001C;" d="M412.086,158.795c-2.433,9.995-5.736,19.768-9.916,29.168c-0.778,1.749,1.807,3.277,2.59,1.514
					c4.288-9.642,7.723-19.631,10.219-29.885C415.435,157.717,412.543,156.917,412.086,158.795z"/>
				<path style="fill:#15001C;" d="M396.902,190.877c0.567-0.648,0.502-1.633-0.146-2.2c-0.648-0.567-1.633-0.502-2.2,0.145
					c-0.567,0.648-0.502,1.633,0.146,2.2C395.35,191.589,396.335,191.524,396.902,190.877z"/>
				<path style="fill:#15001C;" d="M401.397,194.814c0.567-0.648,0.502-1.632-0.146-2.2c-0.648-0.567-1.633-0.502-2.2,0.146
					c-0.567,0.648-0.502,1.633,0.146,2.2C399.845,195.527,400.83,195.462,401.397,194.814z"/>
			</g>
			<g>
				<path style="fill:#15001C;" d="M357.962,213.475c0.07,3.825,0.01,7.652-0.168,11.473c-2.328,0.137-4.657,0.273-6.986,0.41
					c-0.364-4.132-0.88-8.252-1.559-12.35c-0.314-1.9-3.206-1.094-2.893,0.798c1.423,8.596,2.102,17.295,2.076,26.007
					c-0.006,1.931,2.994,1.933,3,0c0.012-3.829-0.125-7.653-0.39-11.468c2.195-0.129,4.391-0.258,6.586-0.386
					c-0.27,4.217-0.688,8.424-1.273,12.611c-0.113,0.809,0.197,1.601,1.048,1.845c0.7,0.201,1.733-0.246,1.845-1.048
					c1.292-9.244,1.884-18.557,1.713-27.891C360.927,211.547,357.926,211.54,357.962,213.475z"/>
				<path style="fill:#15001C;" d="M367.02,214.771c-2.608,8.518-4.335,17.267-5.21,26.131c-0.19,1.92,2.812,1.907,3,0
					c0.119-1.204,0.259-2.406,0.413-3.605c2.587,0.055,5.172,0.186,7.75,0.406c0.271,1.762,0.526,3.525,0.761,5.284
					c0.108,0.809,0.612,1.491,1.5,1.5c0.728,0.008,1.607-0.697,1.5-1.5c-1.306-9.764-2.943-19.513-6.973-28.574
					C369.206,213.164,367.365,213.645,367.02,214.771z M365.637,234.311c0.743-4.896,1.775-9.743,3.069-14.524
					c1.743,4.814,2.893,9.825,3.769,14.882C370.2,234.484,367.92,234.367,365.637,234.311z"/>
				<path style="fill:#15001C;" d="M380.841,216.343c-0.292,6.725-0.845,13.435-1.658,20.117c-0.099,0.811,0.76,1.492,1.5,1.5
					c0.892,0.009,1.403-0.699,1.5-1.5c0.812-6.682,1.365-13.392,1.658-20.117C383.925,214.413,380.925,214.417,380.841,216.343z"/>
				<path style="fill:#15001C;" d="M386.916,216.033c-0.38,7.656-1.445,15.245-3.182,22.711c-0.437,1.878,2.455,2.68,2.893,0.797
					c1.796-7.72,2.896-15.592,3.289-23.508C390.012,214.103,387.011,214.108,386.916,216.033z"/>
				<path style="fill:#15001C;" d="M380.194,241.902c0.337-0.792-0.032-1.708-0.824-2.045c-0.792-0.337-1.708,0.032-2.045,0.824
					c-0.337,0.792,0.032,1.708,0.824,2.045C378.941,243.063,379.857,242.694,380.194,241.902z"/>
				<path style="fill:#15001C;" d="M385.693,244.242c0.337-0.792-0.032-1.708-0.824-2.045c-0.792-0.337-1.708,0.032-2.045,0.824
					c-0.337,0.792,0.032,1.708,0.824,2.045S385.356,245.034,385.693,244.242z"/>
			</g>
		</g>
	</g>
</g>
</svg>
